<?xml version="1.0" encoding="utf-8"?>
<!-- Generator: Adobe Illustrator 23.0.3, SVG Export Plug-In . SVG Version: 6.00 Build 0)  -->
<svg version="1.1" id="Layer_1" xmlns="http://www.w3.org/2000/svg" xmlns:xlink="http://www.w3.org/1999/xlink" x="0px" y="0px"
	 viewBox="0 0 260 260" style="enable-background:new 0 0 260 260;" xml:space="preserve">
<style type="text/css">
	.st0{fill-rule:evenodd;clip-rule:evenodd;fill:url(#SVGID_1_);}
	.st1{fill:url(#SVGID_2_);}
	.st2{fill:url(#SVGID_3_);}
	.st3{fill:url(#SVGID_4_);}
	.st4{fill:url(#SVGID_5_);}
	.st5{fill:url(#SVGID_6_);}
	.st6{fill:url(#SVGID_7_);}
	.st7{fill:url(#SVGID_8_);}
</style>
<g>
	<linearGradient id="SVGID_1_" gradientUnits="userSpaceOnUse" x1="8.4681" y1="130" x2="251.5319" y2="130">
		<stop  offset="0" style="stop-color:#2D93FC"/>
		<stop  offset="1" style="stop-color:#5147FB"/>
	</linearGradient>
	<path class="st0" d="M130,11.5C62.9,11.5,8.5,65.9,8.5,133c0,53.7,34.8,99.3,83.1,115.3c6.1,1.1,8.3-2.6,8.3-5.8
		c0-2.9-0.1-12.5-0.2-22.6c-33.8,7.4-40.9-14.3-40.9-14.3c-5.5-14-13.5-17.8-13.5-17.8c-11-7.5,0.8-7.4,0.8-7.4
		c12.2,0.9,18.6,12.5,18.6,12.5c10.8,18.6,28.4,13.2,35.4,10.1c1.1-7.9,4.2-13.2,7.7-16.3c-27-3.1-55.4-13.5-55.4-60.1
		c0-13.3,4.7-24.1,12.5-32.6c-1.3-3.1-5.4-15.4,1.2-32.2c0,0,10.2-3.3,33.4,12.5c9.7-2.7,20.1-4,30.4-4.1c10.3,0,20.7,1.4,30.4,4.1
		c23.2-15.7,33.4-12.5,33.4-12.5c6.6,16.7,2.5,29.1,1.2,32.2c7.8,8.5,12.5,19.4,12.5,32.6c0,46.7-28.4,57-55.5,60
		c4.4,3.8,8.2,11.2,8.2,22.5c0,16.3-0.1,29.3-0.1,33.4c0,3.2,2.2,7,8.3,5.8c48.3-16.1,83-61.6,83-115.3
		C251.5,65.9,197.1,11.5,130,11.5z"/>
	<linearGradient id="SVGID_2_" gradientUnits="userSpaceOnUse" x1="51.244" y1="185.2293" x2="54.5881" y2="185.2293">
		<stop  offset="0" style="stop-color:#2D93FC"/>
		<stop  offset="1" style="stop-color:#5147FB"/>
	</linearGradient>
	<path class="st1" d="M54.5,186c-0.3,0.6-1.2,0.8-2.1,0.4c-0.9-0.4-1.4-1.2-1.1-1.8c0.3-0.6,1.2-0.8,2.1-0.4
		C54.3,184.5,54.8,185.4,54.5,186L54.5,186z M53,184.9"/>
	<linearGradient id="SVGID_3_" gradientUnits="userSpaceOnUse" x1="56.226" y1="189.909" x2="59.7913" y2="189.909">
		<stop  offset="0" style="stop-color:#2D93FC"/>
		<stop  offset="1" style="stop-color:#5147FB"/>
	</linearGradient>
	<path class="st2" d="M59.4,191.5c-0.6,0.5-1.7,0.3-2.5-0.6c-0.8-0.8-0.9-2-0.4-2.5c0.6-0.5,1.7-0.3,2.5,0.6
		C59.9,189.8,60,190.9,59.4,191.5L59.4,191.5z M58.3,190.2"/>
	<linearGradient id="SVGID_4_" gradientUnits="userSpaceOnUse" x1="60.941" y1="196.4771" x2="64.7863" y2="196.4771">
		<stop  offset="0" style="stop-color:#2D93FC"/>
		<stop  offset="1" style="stop-color:#5147FB"/>
	</linearGradient>
	<path class="st3" d="M64.2,198.5c-0.7,0.5-2,0-2.7-1c-0.7-1.1-0.7-2.4,0-2.9c0.8-0.5,2-0.1,2.7,1C65,196.6,65,197.9,64.2,198.5
		L64.2,198.5z M64.2,198.5"/>
	<linearGradient id="SVGID_5_" gradientUnits="userSpaceOnUse" x1="66.6083" y1="203.4296" x2="71.1575" y2="203.4296">
		<stop  offset="0" style="stop-color:#2D93FC"/>
		<stop  offset="1" style="stop-color:#5147FB"/>
	</linearGradient>
	<path class="st4" d="M70.8,205.2c-0.7,0.7-2.1,0.5-3.1-0.5c-1.1-1-1.4-2.4-0.7-3.1c0.7-0.7,2.1-0.5,3.1,0.5
		C71.2,203.1,71.5,204.5,70.8,205.2L70.8,205.2z M70.8,205.2"/>
	<linearGradient id="SVGID_6_" gradientUnits="userSpaceOnUse" x1="74.7508" y1="208.3784" x2="79.887" y2="208.3784">
		<stop  offset="0" style="stop-color:#2D93FC"/>
		<stop  offset="1" style="stop-color:#5147FB"/>
	</linearGradient>
	<path class="st5" d="M79.8,209.1c-0.3,1-1.7,1.4-3,1c-1.4-0.4-2.3-1.5-2-2.5c0.3-1,1.7-1.4,3-1C79.2,207.1,80.1,208.2,79.8,209.1
		L79.8,209.1z M79.8,209.1"/>
	<linearGradient id="SVGID_7_" gradientUnits="userSpaceOnUse" x1="84.5571" y1="209.9073" x2="89.7817" y2="209.9073">
		<stop  offset="0" style="stop-color:#2D93FC"/>
		<stop  offset="1" style="stop-color:#5147FB"/>
	</linearGradient>
	<path class="st6" d="M89.8,209.9c0,1-1.1,1.8-2.6,1.9c-1.5,0-2.6-0.8-2.6-1.8c0-1,1.1-1.8,2.6-1.9
		C88.6,208.1,89.8,208.9,89.8,209.9L89.8,209.9z M89.8,209.9"/>
	<linearGradient id="SVGID_8_" gradientUnits="userSpaceOnUse" x1="93.8534" y1="208.7529" x2="99.0552" y2="208.7529">
		<stop  offset="0" style="stop-color:#2D93FC"/>
		<stop  offset="1" style="stop-color:#5147FB"/>
	</linearGradient>
	<path class="st7" d="M99,208.3c0.2,1-0.8,2-2.3,2.2c-1.4,0.3-2.7-0.3-2.9-1.3c-0.2-1,0.8-2,2.3-2.3C97.6,206.7,98.9,207.3,99,208.3
		L99,208.3z M99,208.3"/>
</g>
</svg>
