<svg width="126" height="107" viewBox="0 0 126 107" xmlns="http://www.w3.org/2000/svg">
  <title>House Icon</title>
  <g fill="#FFF" fill-rule="evenodd">
    <path d="M24.302 106.986c-3.201-.01-4.94-1.835-4.94-5.076-.009-12.285-.029-24.57.01-36.854.01-3.28 1.228-6.133 3.693-8.296C35.16 46.12 47.277 35.5 59.403 24.89c2.887-2.532 5.342-2.512 8.218.01 12.087 10.59 24.174 21.18 36.24 31.78 2.505 2.203 3.752 5.065 3.761 8.396.04 12.155.01 24.32.01 36.475 0 3.79-1.61 5.445-5.321 5.445-12.922.01-25.833 0-38.755 0-13.088 0-26.176.01-39.254-.01zm34.993-51.303c-4.703-4.248-11.32-3.969-15.425.428-2.936 3.141-4.016 8.626-1.964 12.594 1.61 3.111 3.623 6.073 5.823 8.795 3.83 4.746 7.963 9.234 11.91 13.88 1.355 1.606 2.553 3.35 3.898 5.136.55-.798 1.03-1.616 1.63-2.324 3.505-4.158 7.108-8.216 10.525-12.444 2.995-3.7 5.901-7.489 8.621-11.407 2.15-3.102 2.229-6.671 1.11-10.211-2.23-7.04-10.526-9.692-16.643-5.375-2.19 1.546-3.338 2.962-5.086 6.202-1.453-1.764-2.72-3.759-4.399-5.274z"/>
    <path d="M85.547 17.628c-.638-.524-1.021-.82-1.375-1.127-5.638-4.894-11.276-9.798-16.924-14.693-2.8-2.432-5.736-2.402-8.545.04-18.417 15.998-36.814 31.996-55.26 47.964-2.132 1.84-3.488 3.896-2.731 6.803 1.08 4.192 6.02 5.784 9.34 2.976 4.224-3.57 8.37-7.238 12.544-10.867C35.934 37.136 49.263 25.548 62.602 13.97c.089-.08.206-.139.413-.277.314.257.668.524 1.002.81 17.198 14.94 34.388 29.89 51.596 44.83 3.507 3.046 8.497 1.682 9.656-2.659.658-2.472-.108-4.548-2.043-6.22-5.776-4.992-11.434-10.134-17.337-14.959-2.387-1.948-3.418-3.945-3.251-7.08.285-5.625.079-11.271.079-16.897 0-2.353-1.228-3.639-3.546-3.639-3.34-.01-6.67-.01-10 0-2.416.01-3.614 1.246-3.624 3.688-.01 1.879 0 3.787 0 6.061z"/>
  </g>
</svg>
