<svg xmlns="http://www.w3.org/2000/svg" xmlns:xlink="http://www.w3.org/1999/xlink" id="Layer_1" x="0" y="0" enable-background="new 0 0 260 260" version="1.1" viewBox="0 0 260 260" xml:space="preserve"><style type="text/css">.st0{fill:#000}</style><g><g><path d="M75.5,140.3v-35.6h-5.1V103h8.3H87v1.7H82v35.6H87v1.6h-8.3h-8.3v-1.6H75.5z" class="st0"/><path d="M96.3,140.3v-35.6h-5.1V103h8.3h7c7.1,0,12.4,1.7,16.1,5c3.7,3.3,5.5,8.2,5.5,14.5c0,5.8-1.7,10.5-5.2,14.1 c-3.5,3.6-8.1,5.3-13.7,5.3h-9.6h-8.3v-1.6H96.3z M102.8,140.2h5.5c5,0,8.4-1.3,10.2-3.9c1.8-2.6,2.6-7.6,2.6-15 c0-6-0.9-10.3-2.7-12.9c-1.8-2.6-4.9-3.8-9.2-3.8h-6.4V140.2z" class="st0"/><path d="M136.1,140.3v-35.6h-5.1V103h8.3h7c7.1,0,12.4,1.7,16.1,5c3.7,3.3,5.5,8.2,5.5,14.5c0,5.8-1.7,10.5-5.2,14.1 c-3.5,3.6-8.1,5.3-13.7,5.3h-9.6h-8.3v-1.6H136.1z M142.6,140.2h5.5c5,0,8.4-1.3,10.2-3.9c1.8-2.6,2.6-7.6,2.6-15 c0-6-0.9-10.3-2.7-12.9c-1.8-2.6-4.9-3.8-9.2-3.8h-6.4V140.2z" class="st0"/><path d="M204.3,154.4c-6.4,0.3-11-0.7-13.8-2.8c-2.5-1.9-3.9-5.1-4.3-9.5c-2.9-0.9-5.6-2.7-8-5.4 c-3.6-4-5.4-8.8-5.4-14.1c0-5.4,1.8-10.1,5.4-14.2c3.6-4,7.7-6.1,12.5-6.1c4.8,0,8.9,2,12.5,6.1c3.6,4,5.3,8.8,5.3,14.2 c0,5.4-1.8,10.1-5.4,14.1c-2.7,3.1-5.9,5-9.4,5.7c-0.2,3.2,0.3,5.6,1.5,7.1c1.5,1.8,4.5,2.9,8.9,3.3V154.4z M182.5,108.2 c-1.6,2.8-2.5,7.6-2.5,14.3c0,6.7,0.9,11.4,2.5,14.2c1.6,2.8,4.4,4.3,8.3,4.3c3.9,0,6.7-1.4,8.3-4.3c1.7-2.8,2.5-7.6,2.4-14.2 c0-6.7-0.8-11.4-2.4-14.3c-1.7-2.8-4.4-4.3-8.3-4.3C186.8,104,184.1,105.4,182.5,108.2z" class="st0"/><path d="M218.4,140.3v-35.6h-5.1V103h8.3h7c7.1,0,12.4,1.7,16.1,5c3.7,3.3,5.5,8.2,5.5,14.5c0,5.8-1.7,10.5-5.2,14.1 c-3.5,3.6-8.1,5.3-13.7,5.3h-9.6h-8.3v-1.6H218.4z M224.8,140.2h5.5c5,0,8.4-1.3,10.2-3.9c1.8-2.6,2.6-7.6,2.6-15 c0-6-0.9-10.3-2.7-12.9c-1.8-2.6-4.9-3.8-9.2-3.8h-6.4V140.2z" class="st0"/></g><g><path d="M148.6,154.4l-1.8-5.9h-2.6v0.3h1v7.4h-1v0.3h2.5v-0.3h-1v-7l2.4,7.3h0.4l2.6-7.6h0v7.2h-1v0.3h3.4v-0.3h-1 v-7.4h1v-0.3h-2.6L148.6,154.4z M137.7,155.8c-0.3,0.3-0.7,0.4-1.2,0.4h-1.9v-7.4h1v-0.3h-3.4v0.3h1v7.4h-1v0.3h6.4l0.2-2.2h-0.4 C138.3,155,138,155.5,137.7,155.8z M139.7,148.9h1v7.4h-1v0.3h3.4v-0.3h-1v-7.4h1v-0.3h-3.4V148.9z M165.2,148.5h-6.5l-0.1,1.2 l-0.1,1.2h0.4c0.1-0.7,0.3-1.2,0.6-1.5c0.3-0.3,0.7-0.4,1.4-0.4h0.5v7.4h-1.2v0.3h3.7v-0.3h-1.2v-7.4h0.5c0.6,0,1.1,0.1,1.4,0.4 c0.3,0.3,0.5,0.8,0.6,1.5h0.4l-0.1-1.2L165.2,148.5z M180.6,149.6c-0.8-0.7-1.9-1-3.3-1h-3.1v0.3h1v7.4h-1v0.3h3.7 c1.2,0,2.1-0.4,2.8-1.1c0.7-0.7,1.1-1.7,1.1-2.9C181.8,151.2,181.4,150.2,180.6,149.6z M179.8,155.4c-0.4,0.5-1.1,0.8-2.1,0.8 h-1.1v-7.3h1.3c0.9,0,1.5,0.3,1.9,0.8c0.4,0.5,0.6,1.4,0.6,2.7C180.3,153.9,180.1,154.9,179.8,155.4z M172,155.8 c-0.3,0.3-0.7,0.4-1.2,0.4h-2.1v-3.5h0.7c0.4,0,0.7,0.1,0.9,0.3c0.2,0.2,0.3,0.5,0.3,1h0.4v-3h-0.4c-0.1,0.5-0.2,0.8-0.3,1 c-0.2,0.2-0.5,0.3-0.8,0.3h-0.7v-3.5h1.9c0.6,0,1,0.1,1.3,0.4c0.3,0.2,0.5,0.7,0.7,1.3h0.4l-0.1-1l-0.1-1h-6.4v0.3h1v7.4h-1v0.3 h6.6l0.2-2.2h-0.4C172.6,155,172.3,155.5,172,155.8z M154.3,148.9h1v7.4h-1v0.3h3.4v-0.3h-1v-7.4h1v-0.3h-3.4V148.9z" class="st0"/></g><g><path d="M70.6,153.4h55.4v-1H70.6V153.4z M208.1,152.4v1h40.6v-1H208.1z" class="st0"/></g><path d="M48.1,125.1v-22.8h-26L9.9,114.5v43.2h49.2v-32.6H48.1z M56.7,155.6H12.3v-40.6l10.6-10.6h22.8v22.9l0.8,0.7 h10.2V155.6z" class="st0"/><rect width="7.5" height="5.9" x="10.5" y="129.2" class="st0"/><rect width="7.5" height="5.9" x="10.5" y="137.7" class="st0"/><rect width="7.5" height="5.9" x="10.5" y="145.9" class="st0"/><g><polygon points="57.1 138.6 50.7 138.6 50 138.2 50 136.6 50.7 136.3 57.1 136.3" class="st0"/><rect width=".1" height="2.6" x="51" y="136.1" class="st0"/><rect width=".1" height="2.6" x="51.3" y="136.1" class="st0"/><rect width=".1" height="2.6" x="51.6" y="136.1" class="st0"/><rect width=".1" height="2.6" x="51.9" y="136.1" class="st0"/><rect width=".1" height="2.6" x="52.2" y="136.1" class="st0"/><rect width=".1" height="2.6" x="52.5" y="136.1" class="st0"/><rect width=".1" height="2.6" x="52.8" y="136.1" class="st0"/><rect width=".1" height="2.6" x="53.1" y="136.1" class="st0"/><rect width=".1" height="2.6" x="53.4" y="136.1" class="st0"/><rect width=".1" height="2.6" x="53.7" y="136.1" class="st0"/><rect width=".1" height="2.6" x="54" y="136.1" class="st0"/><rect width=".1" height="2.6" x="54.3" y="136.1" class="st0"/><rect width=".1" height="2.6" x="54.6" y="136.1" class="st0"/><rect width=".1" height="2.6" x="54.9" y="136.1" class="st0"/><rect width=".1" height="2.6" x="55.2" y="136.1" class="st0"/><rect width=".1" height="2.6" x="55.5" y="136.1" class="st0"/><rect width=".1" height="2.6" x="55.8" y="136.1" class="st0"/><rect width=".1" height="2.6" x="56.1" y="136.1" class="st0"/><rect width=".1" height="2.6" x="56.4" y="136.1" class="st0"/></g><g><polygon points="57.1 144.8 50.7 144.8 50 144.5 50 142.8 50.7 142.5 57.1 142.5" class="st0"/><rect width=".1" height="2.6" x="51" y="142.4" class="st0"/><rect width=".1" height="2.6" x="51.3" y="142.4" class="st0"/><rect width=".1" height="2.6" x="51.6" y="142.4" class="st0"/><rect width=".1" height="2.6" x="51.9" y="142.4" class="st0"/><rect width=".1" height="2.6" x="52.2" y="142.4" class="st0"/><rect width=".1" height="2.6" x="52.5" y="142.4" class="st0"/><rect width=".1" height="2.6" x="52.8" y="142.4" class="st0"/><rect width=".1" height="2.6" x="53.1" y="142.4" class="st0"/><rect width=".1" height="2.6" x="53.4" y="142.4" class="st0"/><rect width=".1" height="2.6" x="53.7" y="142.4" class="st0"/><rect width=".1" height="2.6" x="54" y="142.4" class="st0"/><rect width=".1" height="2.6" x="54.3" y="142.4" class="st0"/><rect width=".1" height="2.6" x="54.6" y="142.4" class="st0"/><rect width=".1" height="2.6" x="54.9" y="142.4" class="st0"/><rect width=".1" height="2.6" x="55.2" y="142.4" class="st0"/><rect width=".1" height="2.6" x="55.5" y="142.4" class="st0"/><rect width=".1" height="2.6" x="55.8" y="142.4" class="st0"/><rect width=".1" height="2.6" x="56.1" y="142.4" class="st0"/><rect width=".1" height="2.6" x="56.4" y="142.4" class="st0"/></g><g><polygon points="57.1 141.4 52.3 141.4 51.8 141.2 51.8 139.9 52.3 139.7 57.1 139.7" class="st0"/><rect width=".1" height="2" x="52.6" y="139.6" class="st0"/><rect width=".1" height="2" x="52.8" y="139.6" class="st0"/><rect width=".1" height="2" x="53" y="139.6" class="st0"/><rect width=".1" height="2" x="53.2" y="139.6" class="st0"/><rect width=".1" height="2" x="53.5" y="139.6" class="st0"/><rect width=".1" height="2" x="53.7" y="139.6" class="st0"/><rect width=".1" height="2" x="53.9" y="139.6" class="st0"/><rect width=".1" height="2" x="54.1" y="139.6" class="st0"/><rect width=".1" height="2" x="54.4" y="139.6" class="st0"/><rect width=".1" height="2" x="54.6" y="139.6" class="st0"/><rect width=".1" height="2" x="54.8" y="139.6" class="st0"/><rect width=".1" height="2" x="55" y="139.6" class="st0"/><rect width=".1" height="2" x="55.2" y="139.6" class="st0"/><rect width=".1" height="2" x="55.5" y="139.6" class="st0"/><rect width=".1" height="2" x="55.7" y="139.6" class="st0"/><rect width=".1" height="2" x="55.9" y="139.6" class="st0"/><rect width=".1" height="2" x="56.1" y="139.6" class="st0"/><rect width=".1" height="2" x="56.4" y="139.6" class="st0"/><rect width=".1" height="2" x="56.6" y="139.6" class="st0"/></g><g><path d="M37.3,123.9c0.6-0.1,1-0.6,1-1.3c0-0.7-0.6-1.3-1.3-1.3H26.2c0.6-1.2,1.4-2.4,2.3-3.4h-2.9 c-1.3,1.8-2.3,3.9-2.9,6L37.3,123.9L37.3,123.9z M38.5,115.2c0-0.7-0.4-1.3-0.9-1.3h-4.8c3.3-2.3,7.3-3.6,11.6-3.6 c1,0,2,0.1,3,0.2v-2.4c-1-0.1-2-0.2-3-0.2c-7.1,0-13.5,3.3-17.7,8.4H38C38.3,116.1,38.5,115.7,38.5,115.2z M44.4,151.3 c-3.7,0-7.2-1-10.2-2.7H30c3.9,3.2,8.9,5.1,14.4,5.1c5.1,0,9.8-1.7,13.6-4.5v-3C54.3,149.3,49.6,151.3,44.4,151.3z M37.7,130.2 c0-0.7-0.6-1.3-1.3-1.3H24c0.1-1.2,0.3-2.3,0.6-3.4h-2.4c-0.4,1.7-0.6,3.5-0.6,5.3c0,0.2,0,0.4,0,0.6h15.3 C37.3,131.2,37.7,130.7,37.7,130.2z M31.8,147h5.4c0.5,0,0.9-0.6,0.9-1.3c0-0.7-0.4-1.3-0.9-1.3H29c-0.9-1-1.7-2.1-2.3-3.3H24 c1.1,2.2,2.6,4.2,4.3,5.9L31.8,147C31.8,147,31.8,147,31.8,147z M25.8,139.5h10.9c0.7,0,1.3-0.6,1.3-1.3c0-0.7-0.6-1.3-1.3-1.3 H24.9c0,0,0,0,0,0c-0.4-1.3-0.7-2.6-0.8-3.9h-2.4c0.2,2.3,0.8,4.5,1.6,6.6L25.8,139.5C25.8,139.5,25.8,139.5,25.8,139.5z" class="st0"/></g></g></svg>