<?xml version="1.0" encoding="utf-8"?>
<!-- Generator: Adobe Illustrator 23.0.3, SVG Export Plug-In . SVG Version: 6.00 Build 0)  -->
<svg version="1.1" id="Layer_1" xmlns="http://www.w3.org/2000/svg" xmlns:xlink="http://www.w3.org/1999/xlink" x="0px" y="0px"
	 viewBox="0 0 260 260" style="enable-background:new 0 0 260 260;" xml:space="preserve">
<style type="text/css">
	.st0{fill:url(#SVGID_1_);}
	.st1{fill:url(#SVGID_2_);}
	.st2{fill:url(#SVGID_3_);}
	.st3{fill:url(#SVGID_4_);}
	.st4{fill:url(#SVGID_5_);}
	.st5{fill:url(#SVGID_6_);}
</style>
<linearGradient id="SVGID_1_" gradientUnits="userSpaceOnUse" x1="99.5544" y1="97.8311" x2="165.0273" y2="97.8311">
	<stop  offset="0" style="stop-color:#2D93FC"/>
	<stop  offset="1" style="stop-color:#5147FB"/>
</linearGradient>
<path class="st0" d="M132.4,46.8c-18.7,0-32.9,13.5-32.9,31.4c0,13.2,5.9,20.8,12.1,29c1.9,2.5,3.8,5,5.7,7.8
	c7.9,11.8,13.5,32.7,13.6,32.9c0.2,0.6,0.7,0.9,1.2,0.9h0c0.6,0,1.1-0.4,1.2-1c2-7.9,6.6-20.7,16.9-36.4c2-3.1,3.9-5.6,5.5-7.9
	c5.7-7.9,9.2-12.7,9.2-25.1C165,62.9,152.8,46.8,132.4,46.8z M132.6,91.4c-6.7,0-12.2-5.5-12.2-12.2S125.9,67,132.6,67
	c6.7,0,12.2,5.5,12.2,12.2S139.4,91.4,132.6,91.4z"/>
<g>
	<linearGradient id="SVGID_2_" gradientUnits="userSpaceOnUse" x1="236.0534" y1="108.0128" x2="236.0534" y2="108.0128">
		<stop  offset="0" style="stop-color:#2D93FC"/>
		<stop  offset="1" style="stop-color:#5147FB"/>
	</linearGradient>
	<path class="st1" d="M236.1,108"/>
</g>
<g>
	<linearGradient id="SVGID_3_" gradientUnits="userSpaceOnUse" x1="10.4847" y1="157.3597" x2="249.3719" y2="157.3597">
		<stop  offset="0" style="stop-color:#2D93FC"/>
		<stop  offset="1" style="stop-color:#5147FB"/>
	</linearGradient>
	<path class="st2" d="M246.9,209c-0.3,0-0.7-0.1-1-0.2l-57.9-25.7l-54.4,25.3c-0.7,0.3-1.5,0.3-2.2,0l-56-27.6l-61.5,23.8
		c-1,0.4-2.1,0.1-2.8-0.7c-0.7-0.8-0.8-2-0.3-2.9l46.5-79.3c0.3-0.5,0.7-0.9,1.3-1.1l39.3-14.7c1-0.4,2.1-0.1,2.8,0.7l17.9,20.5
		c0.9,1,0.8,2.6-0.2,3.5c-1,0.9-2.6,0.8-3.5-0.2L98,111.2L61.2,125l-42.4,72.3l55.8-21.6c0.7-0.3,1.4-0.2,2,0.1l55.9,27.6l54.4-25.3
		c0.7-0.3,1.4-0.3,2.1,0l52.1,23.1l-42-75.1l-31.4-13L150.1,129c-1,0.9-2.6,0.8-3.5-0.2c-0.9-1-0.9-2.6,0.2-3.5l18.7-17
		c0.7-0.7,1.7-0.8,2.6-0.5l33.6,13.9c0.5,0.2,1,0.6,1.2,1.1l46.1,82.4c0.5,0.9,0.4,2.1-0.3,2.9C248.2,208.7,247.6,209,246.9,209z"/>
</g>
<g>
	<linearGradient id="SVGID_4_" gradientUnits="userSpaceOnUse" x1="129.5762" y1="182.438" x2="134.5762" y2="182.438">
		<stop  offset="0" style="stop-color:#2D93FC"/>
		<stop  offset="1" style="stop-color:#5147FB"/>
	</linearGradient>
	<path class="st3" d="M132.1,208.6c-1.4,0-2.5-1.1-2.5-2.5v-47.3c0-1.4,1.1-2.5,2.5-2.5s2.5,1.1,2.5,2.5v47.3
		C134.6,207.5,133.5,208.6,132.1,208.6z"/>
</g>
<g>
	<linearGradient id="SVGID_5_" gradientUnits="userSpaceOnUse" x1="72.9584" y1="143.4413" x2="100.9966" y2="143.4413">
		<stop  offset="0" style="stop-color:#2D93FC"/>
		<stop  offset="1" style="stop-color:#5147FB"/>
	</linearGradient>
	<path class="st4" d="M75.5,180.5c-0.3,0-0.5,0-0.8-0.1c-1.3-0.4-2-1.9-1.6-3.2l23-69.1c0.4-1.3,1.9-2,3.2-1.6
		c1.3,0.4,2,1.9,1.6,3.2l-23,69.1C77.5,179.8,76.5,180.5,75.5,180.5z"/>
</g>
<g>
	<linearGradient id="SVGID_6_" gradientUnits="userSpaceOnUse" x1="164.7016" y1="145.8352" x2="190.4127" y2="145.8352">
		<stop  offset="0" style="stop-color:#2D93FC"/>
		<stop  offset="1" style="stop-color:#5147FB"/>
	</linearGradient>
	<path class="st5" d="M187.9,182.8c-1.1,0-2.1-0.7-2.4-1.8l-20.7-69c-0.4-1.3,0.4-2.7,1.7-3.1c1.3-0.4,2.7,0.4,3.1,1.7l20.7,69
		c0.4,1.3-0.4,2.7-1.7,3.1C188.4,182.8,188.1,182.8,187.9,182.8z"/>
</g>
</svg>
