<svg width="433.49789" height="112.15" xmlns="http://www.w3.org/2000/svg">
 <metadata id="metadata30">image/svg+xml</metadata>

 <style>.st6{fill:#2695ff}.st8{font-size:48px}.st10{fill:#484dff}.st11{fill:#6b74e8}.st12{fill:#031c4f}.st13{fill:#0b3c84}</style>
 <g>
  <title>background</title>
  <rect fill="none" id="canvas_background" height="402" width="582" y="-1" x="-1"/>
 </g>
 <g>
  <title>Layer 1</title>
  <g id="g28">
   <text font-family="'Helvetica Neue'" fill="#2695ff" font-size="48px" y="72.95019" x="127.004686" id="text24" class="st6 st8">Postcodes.io</text>
  </g>
  <g stroke="null" id="g66">
   <g stroke="null" id="g32">
    <path stroke="null" fill="#484dff" id="path30" d="m25.903009,55.154193c-0.514195,0 -1.02839,-0.210736 -1.407714,-0.623777c-0.708072,-0.775507 -0.649066,-1.972485 0.126441,-2.680557l38.901787,-35.353c0.775507,-0.708072 1.980914,-0.649066 2.680557,0.126441c0.708072,0.775507 0.649066,1.972485 -0.126441,2.680557l-38.901787,35.353c-0.362465,0.328747 -0.817654,0.497336 -1.272843,0.497336z" class="st10"/>
   </g>
   <g stroke="null" id="g36">
    <path stroke="null" fill="#6b74e8" id="path34" d="m69.247102,22.093996c-3.885964,0 -7.046998,-3.161034 -7.046998,-7.046998c0,-3.885964 3.161034,-7.046998 7.046998,-7.046998c3.885964,0 7.046998,3.161034 7.046998,7.046998c0,3.885964 -3.161034,7.046998 -7.046998,7.046998zm0,-10.292325c-1.787038,0 -3.245328,1.45829 -3.245328,3.245328c0,1.787038 1.45829,3.245328 3.245328,3.245328c1.787038,0 3.245328,-1.45829 3.245328,-3.245328c0,-1.787038 -1.449861,-3.245328 -3.245328,-3.245328z" class="st11"/>
   </g>
   <g stroke="null" id="g40">
    <path stroke="null" fill="#031c4f" id="path38" d="m101.081768,41.929331c-0.323331,0 -0.653129,-0.109933 -0.924728,-0.336265l-23.473857,-19.374015a1.456284,1.456284 0 0 1 1.855922,-2.24392l23.46739,19.380482c0.620796,0.510864 0.704862,1.429125 0.193999,2.049921c-0.284532,0.342731 -0.698396,0.523797 -1.118727,0.523797z" class="st12"/>
   </g>
   <g stroke="null" id="g44">
    <path stroke="null" fill="#0b3c84" id="path42" d="m99.921772,97.992521l-48.705206,0c-1.045248,0 -1.89662,-0.851372 -1.89662,-1.89662c0,-1.045248 0.851372,-1.89662 1.89662,-1.89662l46.808586,0l0,-27.859243c0,-1.045248 0.851372,-1.89662 1.89662,-1.89662c1.045248,0 1.89662,0.851372 1.89662,1.89662l0,29.747434c0.008429,1.053678 -0.842942,1.90505 -1.89662,1.90505z" class="st13"/>
   </g>
   <g stroke="null" id="g48">
    <path stroke="null" fill="#2695ff" id="path46" d="m68.530601,84.817332c-0.842942,0 -1.584732,-0.547912 -1.820755,-1.357137c-0.278171,-0.952525 -2.849145,-4.585606 -7.257733,-7.485328c-0.665924,-0.43833 -1.390855,-0.868231 -2.124215,-1.31499c-4.501312,-2.722704 -10.115308,-6.102902 -10.056302,-13.520794c0.050577,-7.15658 3.776381,-12.517693 9.49153,-13.672524c3.79324,-0.758648 8.539005,0.649066 11.759045,5.184095c3.203181,-4.442306 7.982664,-5.799443 11.82648,-5.032366c5.681431,1.137972 9.373518,6.406361 9.424095,13.4365c0.050577,7.148151 -5.276819,10.460914 -9.550536,13.124612c-0.927237,0.573201 -1.795467,1.121113 -2.570974,1.669026c-4.206282,2.984016 -7.030139,6.684532 -7.257733,7.535904c-0.219165,0.826083 -0.960954,1.407714 -1.812326,1.424572c-0.033718,0.008429 -0.042147,0.008429 -0.050577,0.008429zm-9.676978,-33.759839c-0.446759,0 -0.901948,0.042147 -1.348708,0.134871c-3.877535,0.783936 -6.406361,4.695189 -6.440079,9.972007c-0.033718,5.251531 4.164135,7.788787 8.227117,10.241749c0.783936,0.472048 1.542584,0.927237 2.250656,1.390855c2.91658,1.913479 5.41169,4.341153 7.021709,6.440079c1.677455,-2.149503 4.256859,-4.619324 6.886839,-6.482226c0.868231,-0.615348 1.837614,-1.213837 2.764851,-1.795467c4.012405,-2.495109 7.797216,-4.855348 7.763499,-9.879284c-0.042147,-6.246202 -3.321193,-9.129065 -6.372644,-9.735984c-3.127316,-0.632207 -7.224015,0.969384 -9.339801,5.934314a1.89662,1.89662 0 0 1 -3.489781,0c-1.694314,-3.902823 -4.703618,-6.220914 -7.923658,-6.220914z" class="st6"/>
   </g>
   <g stroke="null" id="g52">
    <path stroke="null" fill="#6b74e8" id="path50" d="m38.909609,92.049777c-1.045248,0 -1.89662,-0.851372 -1.89662,-1.89662l0,-37.848109c0,-1.045248 0.851372,-1.89662 1.89662,-1.89662c1.045248,0 1.89662,0.851372 1.89662,1.89662l0,37.848109c0.008429,1.045248 -0.842942,1.89662 -1.89662,1.89662z" class="st11"/>
   </g>
   <g stroke="null" id="g56">
    <path stroke="null" fill="#484dff" id="path54" d="m100.048214,68.245087c-3.885964,0 -7.046998,-3.161034 -7.046998,-7.046998c0,-3.885964 3.161034,-7.046998 7.046998,-7.046998c3.885964,0 7.046998,3.161034 7.046998,7.046998c-0.008429,3.885964 -3.169463,7.046998 -7.046998,7.046998zm0,-10.292325c-1.787038,0 -3.245328,1.45829 -3.245328,3.245328c0,1.787038 1.45829,3.245328 3.245328,3.245328c1.787038,0 3.245328,-1.45829 3.245328,-3.245328c0,-1.787038 -1.45829,-3.245328 -3.245328,-3.245328z" class="st10"/>
   </g>
   <g stroke="null" id="g60">
    <path stroke="null" fill="#0b3c84" id="path58" d="m106.560579,52.438567c-3.885964,0 -7.046998,-3.161034 -7.046998,-7.046998c0,-3.885964 3.161034,-7.046998 7.046998,-7.046998c3.885964,0 7.046998,3.161034 7.046998,7.046998c0,3.894393 -3.161034,7.046998 -7.046998,7.046998zm0,-10.283896c-1.787038,0 -3.245328,1.45829 -3.245328,3.245328c0,1.787038 1.45829,3.245328 3.245328,3.245328c1.787038,0 3.245328,-1.45829 3.245328,-3.245328c0,-1.787038 -1.45829,-3.245328 -3.245328,-3.245328z" class="st13"/>
   </g>
   <g stroke="null" id="g64">
    <path stroke="null" fill="#031c4f" id="path62" d="m39.196209,102.53598c-3.885964,0 -7.046998,-3.161034 -7.046998,-7.046998c0,-3.885964 3.161034,-7.046998 7.046998,-7.046998c3.885964,0 7.046998,3.161034 7.046998,7.046998c0,3.885964 -3.161034,7.046998 -7.046998,7.046998zm0,-10.292325c-1.787038,0 -3.245328,1.45829 -3.245328,3.245328c0,1.787038 1.45829,3.245328 3.245328,3.245328c1.787038,0 3.245328,-1.45829 3.245328,-3.245328c0.008429,-1.787038 -1.449861,-3.245328 -3.245328,-3.245328z" class="st12"/>
   </g>
  </g>
 </g>
</svg>