<?xml version="1.0" encoding="UTF-8" standalone="no"?>
<svg
   xmlns:dc="http://purl.org/dc/elements/1.1/"
   xmlns:cc="http://creativecommons.org/ns#"
   xmlns:rdf="http://www.w3.org/1999/02/22-rdf-syntax-ns#"
   xmlns:svg="http://www.w3.org/2000/svg"
   xmlns="http://www.w3.org/2000/svg"
   xmlns:sodipodi="http://sodipodi.sourceforge.net/DTD/sodipodi-0.dtd"
   xmlns:inkscape="http://www.inkscape.org/namespaces/inkscape"
   id="Layer_1"
   viewBox="0 0 433.49789 112.15"
   version="1.1"
   sodipodi:docname="postcodes-open-source.svg"
   width="433.49789"
   height="112.15"
   inkscape:version="0.92.2 5c3e80d, 2017-08-06">
  <metadata
     id="metadata30">
    <rdf:RDF>
      <cc:Work
         rdf:about="">
        <dc:format>image/svg+xml</dc:format>
        <dc:type
           rdf:resource="http://purl.org/dc/dcmitype/StillImage" />
        <dc:title></dc:title>
      </cc:Work>
    </rdf:RDF>
  </metadata>
  <defs
     id="defs28" />
  <sodipodi:namedview
     pagecolor="#ffffff"
     bordercolor="#666666"
     borderopacity="1"
     objecttolerance="10"
     gridtolerance="10"
     guidetolerance="10"
     inkscape:pageopacity="0"
     inkscape:pageshadow="2"
     inkscape:window-width="1405"
     inkscape:window-height="855"
     id="namedview26"
     showgrid="false"
     fit-margin-top="0"
     fit-margin-left="0"
     fit-margin-right="0"
     fit-margin-bottom="0"
     inkscape:zoom="0.52161628"
     inkscape:cx="250.19258"
     inkscape:cy="59.115002"
     inkscape:window-x="0"
     inkscape:window-y="1"
     inkscape:window-maximized="1"
     inkscape:current-layer="Layer_1" />
  <style
     id="style2">
    .st6{fill:#2695ff}.st8{font-size:48px}.st10{fill:#484dff}.st11{fill:#6b74e8}.st12{fill:#031c4f}.st13{fill:#0b3c84}
  </style>
  <g
     id="g28"
     transform="translate(-29.995313,-32.69)">
    <text
       class="st6 st8"
       id="text24"
       x="161"
       y="77.983002"
       font-size="48"
       style="font-size:48px;font-family:'Helvetica Neue';fill:#2695ff">Postcodes.io</text>
    <text
       transform="translate(153.3,132.355)"
       class="st6 st8"
       id="text26"
       style="font-size:48px;font-family:Helvetica-Light;fill:#2695ff">Open Source</text>
  </g>
  <g
     id="g66"
     transform="translate(-19.872424,-28.689998)">
    <g
       id="g32">
      <path
         class="st10"
         d="m 28.13,88.63 c -0.61,0 -1.22,-0.25 -1.67,-0.74 -0.84,-0.92 -0.77,-2.34 0.15,-3.18 L 72.76,42.77 c 0.92,-0.84 2.35,-0.77 3.18,0.15 0.84,0.92 0.77,2.34 -0.15,3.18 L 29.64,88.04 c -0.43,0.39 -0.97,0.59 -1.51,0.59 z"
         id="path30"
         inkscape:connector-curvature="0"
         style="fill:#484dff" />
    </g>
    <g
       id="g36">
      <path
         class="st11"
         d="m 79.55,49.41 c -4.61,0 -8.36,-3.75 -8.36,-8.36 0,-4.61 3.75,-8.36 8.36,-8.36 4.61,0 8.36,3.75 8.36,8.36 0,4.61 -3.75,8.36 -8.36,8.36 z m 0,-12.21 c -2.12,0 -3.85,1.73 -3.85,3.85 0,2.12 1.73,3.85 3.85,3.85 2.12,0 3.85,-1.73 3.85,-3.85 0,-2.12 -1.72,-3.85 -3.85,-3.85 z"
         id="path34"
         inkscape:connector-curvature="0"
         style="fill:#6b74e8" />
    </g>
    <g
       id="g40">
      <path
         class="st12"
         d="m 127.47,80.96 c -0.5,0 -1.01,-0.17 -1.43,-0.52 L 89.74,50.48 a 2.252,2.252 0 0 1 2.87,-3.47 l 36.29,29.97 c 0.96,0.79 1.09,2.21 0.3,3.17 -0.44,0.53 -1.08,0.81 -1.73,0.81 z"
         id="path38"
         inkscape:connector-curvature="0"
         style="fill:#031c4f" />
    </g>
    <g
       id="g44">
      <path
         class="st13"
         d="M 115.94,139.45 H 58.16 c -1.24,0 -2.25,-1.01 -2.25,-2.25 0,-1.24 1.01,-2.25 2.25,-2.25 h 55.53 V 101.9 c 0,-1.24 1.01,-2.25 2.25,-2.25 1.24,0 2.25,1.01 2.25,2.25 v 35.29 c 0.01,1.25 -1,2.26 -2.25,2.26 z"
         id="path42"
         inkscape:connector-curvature="0"
         style="fill:#0b3c84" />
    </g>
    <g
       id="g48">
      <path
         class="st6"
         d="m 78.7,123.82 c -1,0 -1.88,-0.65 -2.16,-1.61 -0.33,-1.13 -3.38,-5.44 -8.61,-8.88 -0.79,-0.52 -1.65,-1.03 -2.52,-1.56 -5.34,-3.23 -12,-7.24 -11.93,-16.04 0.06,-8.49 4.48,-14.85 11.26,-16.22 4.5,-0.9 10.13,0.77 13.95,6.15 3.8,-5.27 9.47,-6.88 14.03,-5.97 6.74,1.35 11.12,7.6 11.18,15.94 0.06,8.48 -6.26,12.41 -11.33,15.57 -1.1,0.68 -2.13,1.33 -3.05,1.98 -4.99,3.54 -8.34,7.93 -8.61,8.94 -0.26,0.98 -1.14,1.67 -2.15,1.69 -0.04,0.01 -0.05,0.01 -0.06,0.01 z M 67.22,83.77 c -0.53,0 -1.07,0.05 -1.6,0.16 -4.6,0.93 -7.6,5.57 -7.64,11.83 -0.04,6.23 4.94,9.24 9.76,12.15 0.93,0.56 1.83,1.1 2.67,1.65 3.46,2.27 6.42,5.15 8.33,7.64 1.99,-2.55 5.05,-5.48 8.17,-7.69 1.03,-0.73 2.18,-1.44 3.28,-2.13 4.76,-2.96 9.25,-5.76 9.21,-11.72 -0.05,-7.41 -3.94,-10.83 -7.56,-11.55 -3.71,-0.75 -8.57,1.15 -11.08,7.04 a 2.25,2.25 0 0 1 -4.14,0 c -2.01,-4.63 -5.58,-7.38 -9.4,-7.38 z"
         id="path46"
         inkscape:connector-curvature="0"
         style="fill:#2695ff" />
    </g>
    <g
       id="g52">
      <path
         class="st11"
         d="m 43.56,132.4 c -1.24,0 -2.25,-1.01 -2.25,-2.25 v -44.9 c 0,-1.24 1.01,-2.25 2.25,-2.25 1.24,0 2.25,1.01 2.25,2.25 v 44.9 c 0.01,1.24 -1,2.25 -2.25,2.25 z"
         id="path50"
         inkscape:connector-curvature="0"
         style="fill:#6b74e8" />
    </g>
    <g
       id="g56">
      <path
         class="st10"
         d="m 116.09,104.16 c -4.61,0 -8.36,-3.75 -8.36,-8.36 0,-4.61 3.75,-8.36 8.36,-8.36 4.61,0 8.36,3.75 8.36,8.36 -0.01,4.61 -3.76,8.36 -8.36,8.36 z m 0,-12.21 c -2.12,0 -3.85,1.73 -3.85,3.85 0,2.12 1.73,3.85 3.85,3.85 2.12,0 3.85,-1.73 3.85,-3.85 0,-2.12 -1.73,-3.85 -3.85,-3.85 z"
         id="path54"
         inkscape:connector-curvature="0"
         style="fill:#484dff" />
    </g>
    <g
       id="g60">
      <path
         class="st13"
         d="m 132.12,91.34 c -4.61,0 -8.36,-3.75 -8.36,-8.36 0,-4.61 3.75,-8.36 8.36,-8.36 4.61,0 8.36,3.75 8.36,8.36 0,4.62 -3.75,8.36 -8.36,8.36 z m 0,-12.2 c -2.12,0 -3.85,1.73 -3.85,3.85 0,2.12 1.73,3.85 3.85,3.85 2.12,0 3.85,-1.73 3.85,-3.85 0,-2.12 -1.73,-3.85 -3.85,-3.85 z"
         id="path58"
         inkscape:connector-curvature="0"
         style="fill:#0b3c84" />
    </g>
    <g
       id="g64">
      <path
         class="st12"
         d="m 43.9,144.84 c -4.61,0 -8.36,-3.75 -8.36,-8.36 0,-4.61 3.75,-8.36 8.36,-8.36 4.61,0 8.36,3.75 8.36,8.36 0,4.61 -3.75,8.36 -8.36,8.36 z m 0,-12.21 c -2.12,0 -3.85,1.73 -3.85,3.85 0,2.12 1.73,3.85 3.85,3.85 2.12,0 3.85,-1.73 3.85,-3.85 0.01,-2.12 -1.72,-3.85 -3.85,-3.85 z"
         id="path62"
         inkscape:connector-curvature="0"
         style="fill:#031c4f" />
    </g>
  </g>
</svg>
