<svg id="Layer_1" data-name="Layer 1" xmlns="http://www.w3.org/2000/svg" viewBox="0 0 250 250">
  <defs>
    <style>
      .cls-1 {
        fill: #000000;
      }

      @media (prefers-color-scheme: dark) {
        .cls-1 {
          fill: #ffffff;
        }
      }
    </style>
  </defs>
  <g id="Favicon">
    <path id="Shape" class="cls-1" d="M52.65 225c-6 0-9.24-3.43-9.24-9.49V146.6a20 20 0 016.91-15.51q33.91-29.84 67.94-59.58c5.39-4.73 10-4.7 15.36 0q33.9 29.7 67.76 59.41a20.27 20.27 0 017 15.7c.07 22.73 0 45.47 0 68.2 0 7.08-3 10.18-9.95 10.18H52.65zm65.42-95.92c-8.79-7.94-21.16-7.42-28.84.8-5.48 5.87-7.5 16.13-3.67 23.55a98.84 98.84 0 0010.89 16.44c7.16 8.88 14.89 17.26 22.27 25.95 2.53 3 4.77 6.27 7.28 9.6 1-1.49 1.93-3 3.05-4.34 6.55-7.77 13.29-15.36 19.68-23.27 5.6-6.91 11-14 16.12-21.32 4-5.8 4.16-12.48 2.07-19.09-4.17-13.17-19.68-18.13-31.11-10.05-4.1 2.89-6.24 5.53-9.51 11.59-2.72-3.3-5.09-7.03-8.23-9.86z"/>
    <path id="Path" class="cls-1" d="M167.15 57.93c-1.19-1-1.91-1.53-2.57-2.1q-15.81-13.72-31.64-27.47c-5.23-4.55-10.72-4.5-16 .07Q65.31 73.3 13.65 118.1c-4 3.44-6.52 7.29-5.11 12.72A10.73 10.73 0 0026 136.39c7.89-6.68 15.64-13.53 23.45-20.32q37.41-32.49 74.8-65a7.72 7.72 0 01.77-.51c.59.48 1.25 1 1.87 1.51l96.48 83.84c6.55 5.69 15.88 3.14 18-5 1.23-4.62-.2-8.5-3.82-11.62-10.8-9.34-21.38-19-32.41-28-4.47-3.64-6.39-7.38-6.08-13.24.53-10.52.15-21.07.15-31.59 0-4.4-2.3-6.8-6.63-6.8h-18.7c-4.52 0-6.76 2.33-6.78 6.89.04 3.56.05 7.13.05 11.38z"/>
  </g>
</svg>
